# xmcd CD database file
#
# Track frame offsets:
#	150
#	26617
#	53978
#	88521
#	110813
#	133465
#	156229
#	180124
#	201521
#
# Disc length: 2999 seconds
#
# Revision: 0
# Processed by: cddbd v1.5.2PL0 Copyright (c) Steve Scherf et al.
# Submitted via: CDex 1.70beta2
#
DISCID=7e0bb509
DTITLE=Blackwood - Ballads
DYEAR=2005
DGENRE=Jazz
TTITLE0=Minutes and Moments
TTITLE1=Someday My Prince Will Come
TTITLE2=God Bless The Child
TTITLE3=Bewitched, Bothered And Bewildered (feat Megan Washington)
TTITLE4=Strangers
TTITLE5=When You Wish Upon A Star
TTITLE6=Be My Love
TTITLE7=Twinkle
TTITLE8=Goin' Back (feat Leona Collier)
EXTD=YEAR: 2005
EXTT0=
EXTT1=
EXTT2=
EXTT3=
EXTT4=
EXTT5=
EXTT6=
EXTT7=
EXTT8=
PLAYORDER=
